<svg width="202" height="202" viewBox="0 0 202 202" fill="none" xmlns="http://www.w3.org/2000/svg">
<path d="M101.017 101V1C149.546 1 191.071 35.8431 199.498 83.6352L101.017 101Z" fill="#CA498C" stroke="white"/>
<path d="M101.017 101L199.498 83.6352C203.58 106.788 199.375 130.64 187.619 151L101.017 101Z" fill="#FDE3DF" stroke="white"/>
<path d="M101.017 101L187.619 151C160.005 198.829 98.8461 215.217 51.0168 187.603C35.8149 178.826 23.1911 166.202 14.4143 151L101.017 101Z" fill="#E6BFCE" stroke="white"/>
<path d="M101.017 101L14.4142 151C-13.2001 103.171 3.18744 42.0117 51.0167 14.3975C66.2186 5.62063 83.463 1 101.017 1V101Z" fill="#CF9BBD" stroke="white"/>
<path d="M53.1733 84.1293C52.5639 84.1293 52.0207 84.0246 51.5437 83.8153C51.0697 83.6061 50.6927 83.3152 50.4126 82.9428C50.1357 82.5674 49.9848 82.1319 49.9602 81.6364H51.1236C51.1482 81.9411 51.2528 82.2042 51.4375 82.4258C51.6222 82.6443 51.8638 82.8136 52.1623 82.9336C52.4608 83.0536 52.7917 83.1136 53.1548 83.1136C53.5611 83.1136 53.9212 83.0429 54.2351 82.9013C54.549 82.7597 54.7952 82.5627 54.9737 82.3104C55.1522 82.058 55.2415 81.7656 55.2415 81.4332C55.2415 81.0855 55.1553 80.7792 54.983 80.5146C54.8106 80.2468 54.5582 80.0375 54.2259 79.8867C53.8935 79.7359 53.4872 79.6605 53.0071 79.6605H52.25V78.6449H53.0071C53.3826 78.6449 53.7119 78.5772 53.995 78.4418C54.2813 78.3063 54.5044 78.1155 54.6644 77.8693C54.8275 77.6231 54.9091 77.3338 54.9091 77.0014C54.9091 76.6813 54.8383 76.4028 54.6967 76.1658C54.5552 75.9289 54.3551 75.7442 54.0966 75.6119C53.8411 75.4795 53.5395 75.4134 53.1918 75.4134C52.8655 75.4134 52.5578 75.4734 52.2685 75.5934C51.9822 75.7103 51.7483 75.8812 51.5668 76.1058C51.3852 76.3274 51.2867 76.5952 51.2713 76.9091H50.1634C50.1818 76.4136 50.3311 75.9796 50.6112 75.6072C50.8912 75.2318 51.2575 74.9394 51.7099 74.7301C52.1654 74.5208 52.6655 74.4162 53.2102 74.4162C53.795 74.4162 54.2966 74.5347 54.7152 74.7717C55.1338 75.0056 55.4554 75.3149 55.68 75.6996C55.9047 76.0843 56.017 76.4998 56.017 76.946C56.017 77.4785 55.877 77.9324 55.5969 78.3079C55.32 78.6834 54.9429 78.9434 54.4659 79.0881V79.1619C55.063 79.2604 55.5292 79.5143 55.8647 79.9237C56.2002 80.3299 56.3679 80.8331 56.3679 81.4332C56.3679 81.9472 56.2279 82.4089 55.9478 82.8182C55.6708 83.2244 55.2923 83.5445 54.8121 83.7784C54.332 84.0123 53.7857 84.1293 53.1733 84.1293Z" fill="black"/>
<path d="M100.173 151.129C99.5639 151.129 99.0207 151.025 98.5437 150.815C98.0697 150.606 97.6927 150.315 97.4126 149.943C97.1357 149.567 96.9848 149.132 96.9602 148.636H98.1236C98.1482 148.941 98.2528 149.204 98.4375 149.426C98.6222 149.644 98.8638 149.814 99.1623 149.934C99.4608 150.054 99.7917 150.114 100.155 150.114C100.561 150.114 100.921 150.043 101.235 149.901C101.549 149.76 101.795 149.563 101.974 149.31C102.152 149.058 102.241 148.766 102.241 148.433C102.241 148.085 102.155 147.779 101.983 147.515C101.811 147.247 101.558 147.038 101.226 146.887C100.893 146.736 100.487 146.661 100.007 146.661H99.25V145.645H100.007C100.383 145.645 100.712 145.577 100.995 145.442C101.281 145.306 101.504 145.116 101.664 144.869C101.828 144.623 101.909 144.334 101.909 144.001C101.909 143.681 101.838 143.403 101.697 143.166C101.555 142.929 101.355 142.744 101.097 142.612C100.841 142.48 100.54 142.413 100.192 142.413C99.8655 142.413 99.5578 142.473 99.2685 142.593C98.9822 142.71 98.7483 142.881 98.5668 143.106C98.3852 143.327 98.2867 143.595 98.2713 143.909H97.1634C97.1818 143.414 97.3311 142.98 97.6112 142.607C97.8912 142.232 98.2575 141.939 98.7099 141.73C99.1654 141.521 99.6655 141.416 100.21 141.416C100.795 141.416 101.297 141.535 101.715 141.772C102.134 142.006 102.455 142.315 102.68 142.7C102.905 143.084 103.017 143.5 103.017 143.946C103.017 144.478 102.877 144.932 102.597 145.308C102.32 145.683 101.943 145.943 101.466 146.088V146.162C102.063 146.26 102.529 146.514 102.865 146.924C103.2 147.33 103.368 147.833 103.368 148.433C103.368 148.947 103.228 149.409 102.948 149.818C102.671 150.224 102.292 150.545 101.812 150.778C101.332 151.012 100.786 151.129 100.173 151.129Z" fill="black"/>
<path d="M141.979 64V63.169L145.099 59.7528C145.466 59.3527 145.767 59.005 146.004 58.7095C146.241 58.411 146.417 58.1309 146.531 57.8693C146.647 57.6046 146.706 57.3277 146.706 57.0384C146.706 56.706 146.626 56.4182 146.466 56.1751C146.309 55.9319 146.094 55.7442 145.82 55.6119C145.546 55.4795 145.238 55.4134 144.896 55.4134C144.533 55.4134 144.216 55.4888 143.945 55.6396C143.678 55.7873 143.47 55.995 143.322 56.2628C143.177 56.5305 143.105 56.8445 143.105 57.2045H142.016C142.016 56.6506 142.143 56.1643 142.399 55.7457C142.654 55.3272 143.002 55.0009 143.442 54.767C143.885 54.5331 144.382 54.4162 144.933 54.4162C145.487 54.4162 145.978 54.5331 146.406 54.767C146.834 55.0009 147.169 55.3164 147.412 55.7134C147.655 56.1104 147.777 56.5521 147.777 57.0384C147.777 57.3861 147.714 57.7262 147.588 58.0586C147.465 58.3879 147.249 58.7557 146.941 59.1619C146.637 59.5651 146.214 60.0575 145.672 60.6392L143.548 62.9105V62.9844H147.943V64H141.979Z" fill="black"/>
<path d="M168.303 104.545V114H167.158V105.746H167.102L164.794 107.278V106.115L167.158 104.545H168.303Z" fill="black"/>
</svg>
